<?xml version="1.0" encoding="UTF-8" standalone="no"?>
<svg xmlns:rdf="http://www.w3.org/1999/02/22-rdf-syntax-ns#" xmlns="http://www.w3.org/2000/svg" version="1.1" xmlns:cc="http://creativecommons.org/ns#" xmlns:xlink="http://www.w3.org/1999/xlink" viewBox="0 0 167.13 29" xmlns:dc="http://purl.org/dc/elements/1.1/">
<g transform="matrix(.67518 0 0 .67518 -26.921 -5.5932)">
<path fill="#027eae" d="m73.172 41.481h-6.641l-2.6399-6.8679h-12.086l-2.4955 6.8679h-6.476l11.776-30.235h6.4554zm-11.24-11.962-4.166-11.219-4.083 11.219z"/>
<path fill="#027eae" d="m90.806 41.481v-3.2792c-0.79748 1.1687-1.8459 2.0899-3.1452 2.7636-1.2993 0.67372-2.6708 1.0106-4.1145 1.0106-1.4712 0-2.7911-0.32311-3.9598-0.96934-1.1687-0.64622-2.0143-1.5537-2.5368-2.7224-0.52248-1.1687-0.78372-2.7843-0.78372-4.8467v-13.859h5.7954v10.065c-0.000009 3.0799 0.10655 4.967 0.31968 5.6613 0.21311 0.69435 0.60153 1.2443 1.1653 1.6499 0.56372 0.40561 1.2787 0.60842 2.1449 0.60841 0.98995 0.000003 1.8768-0.27155 2.6605-0.81466 0.7837-0.5431 1.3199-1.2168 1.6087-2.0212 0.28872-0.80434 0.43309-2.7739 0.43311-5.9088v-9.2396h5.7954v21.903z"/>
<path fill="#027eae" d="m112.26 19.578v4.6198h-3.9598v8.8272c-0.00001 1.7874 0.0378 2.829 0.11343 3.1246 0.0756 0.29562 0.24748 0.53967 0.5156 0.73216 0.26811 0.1925 0.59466 0.28874 0.97965 0.28874 0.53622 0.000004 1.3131-0.18561 2.3305-0.55685l0.49498 4.4961c-1.3475 0.57748-2.8736 0.86622-4.5786 0.86622-1.045 0-1.9868-0.17531-2.8255-0.52592-0.83872-0.35061-1.454-0.80434-1.8459-1.3612-0.39187-0.55685-0.66342-1.3096-0.81466-2.2583-0.12375-0.67372-0.18562-2.0349-0.18562-4.0836v-9.549h-2.6605v-4.6198h2.6605v-4.3517l5.816-3.3824v7.7341z"/>
<path fill="#027eae" d="m114.98 30.22c0-1.9249 0.47435-3.788 1.4231-5.5892 0.94871-1.8012 2.2927-3.1761 4.032-4.1248 1.7393-0.94869 3.6814-1.423 5.8263-1.4231 3.3136 0.000022 6.0291 1.0759 8.1466 3.2277 2.1174 2.1518 3.1761 4.8708 3.1761 8.1569-0.00002 3.3136-1.069 6.0601-3.2071 8.2394s-4.8295 3.2689-8.0744 3.2689c-2.0074 0-3.922-0.45373-5.7438-1.3612-1.8218-0.90746-3.2071-2.2377-4.1558-3.9908-0.94872-1.753-1.4231-3.8877-1.4231-6.4038zm5.9398 0.30936c0 2.1724 0.5156 3.8361 1.5468 4.9911s2.303 1.7324 3.8155 1.7324c1.5124 0.000004 2.7808-0.57747 3.8052-1.7324 1.0243-1.1549 1.5365-2.8324 1.5365-5.0323-0.00002-2.1449-0.51219-3.7948-1.5365-4.9498-1.0244-1.1549-2.2927-1.7324-3.8052-1.7324-1.5124 0.000018-2.7843 0.5775-3.8155 1.7324-1.0312 1.155-1.5468 2.8187-1.5468 4.9911z"/>
<path fill="#027eae" d="m141.89 41.481v-30.235h5.7954v10.89c1.7874-2.0349 3.9048-3.0524 6.3523-3.0524 2.6674 0.000022 4.8742 0.96592 6.6204 2.8977s2.6192 4.7058 2.6193 8.3219c-0.00002 3.7399-0.8903 6.6204-2.6708 8.6415-1.7806 2.0212-3.9427 3.0318-6.4863 3.0318-1.2512 0-2.4852-0.3128-3.702-0.9384s-2.2652-1.5502-3.1452-2.774v3.2174zm5.7542-11.426c-0.00001 2.2687 0.35747 3.9461 1.0724 5.0323 1.0037 1.5399 2.3374 2.3099 4.0011 2.3099 1.2787 0.000004 2.3683-0.54654 3.2689-1.6396 0.90057-1.0931 1.3509-2.8152 1.3509-5.1664-0.00002-2.5024-0.45375-4.307-1.3612-5.4138-0.90748-1.1068-2.0693-1.6602-3.4855-1.6602-1.3887 0.000018-2.5437 0.53968-3.4649 1.619-0.92123 1.0793-1.3818 2.719-1.3818 4.9189z"/>
<path fill="#027eae" d="m172.29 26.261-5.2592-0.94871c0.59122-2.1174 1.6087-3.6848 3.0524-4.7023 1.4437-1.0174 3.5886-1.5262 6.4347-1.5262 2.5849 0.000022 4.5098 0.30595 5.7748 0.91778 1.2649 0.61187 2.1552 1.3887 2.6708 2.3305 0.51558 0.94186 0.77339 2.6708 0.77341 5.187l-0.0619 6.7647c-0.00002 1.9249 0.0928 3.3446 0.27843 4.2589 0.1856 0.91434 0.53277 1.894 1.0415 2.9389h-5.7335c-0.15126-0.38498-0.33688-0.95559-0.55686-1.7118-0.0963-0.34374-0.165-0.5706-0.20624-0.6806-0.98997 0.96246-2.0487 1.6843-3.1761 2.1655-1.1275 0.48123-2.3306 0.72185-3.6092 0.72185-2.2549 0-4.032-0.61185-5.3314-1.8356-1.2993-1.2237-1.949-2.7705-1.949-4.6404-0.00001-1.2374 0.29561-2.3408 0.88684-3.3102 0.59122-0.96933 1.4196-1.7118 2.4852-2.2274 1.0656-0.51559 2.6021-0.96589 4.6095-1.3509 2.7086-0.50872 4.5854-0.98307 5.6304-1.4231v-0.57748c-0.00001-1.1137-0.275-1.9077-0.82497-2.3821-0.54999-0.47434-1.5881-0.71152-3.1142-0.71153-1.0312 0.000018-1.8356 0.20282-2.413 0.60841-0.57749 0.40563-1.045 1.1172-1.4024 2.1346zm7.7547 4.7023c-0.74248 0.2475-1.9181 0.54311-3.5267 0.88684-1.6087 0.34375-2.6605 0.68061-3.1555 1.0106-0.75622 0.53624-1.1343 1.2168-1.1343 2.0418 0 0.81122 0.30248 1.5124 0.90747 2.1037 0.60496 0.59123 1.3749 0.88684 2.3099 0.88684 1.0449 0.000003 2.0418-0.34373 2.9905-1.0312 0.70121-0.52247 1.1618-1.1618 1.3818-1.918 0.15123-0.49497 0.22686-1.4368 0.22687-2.8255z"/>
<path fill="#027eae" d="m197.25 11.246v11.116c1.8699-2.1861 4.1042-3.2792 6.7029-3.2792 1.3337 0.000022 2.5368 0.24751 3.6092 0.74247 1.0724 0.495 1.8802 1.1275 2.4233 1.8974 0.54308 0.76999 0.91432 1.6225 1.1137 2.5574 0.19934 0.93498 0.29902 2.3855 0.29905 4.3517v12.849h-5.7954v-11.57c-0.00002-2.2961-0.11001-3.7536-0.32999-4.3723-0.22001-0.61871-0.60843-1.1103-1.1653-1.4746-0.55687-0.36434-1.2547-0.54652-2.0934-0.54654-0.96247 0.000018-1.8218 0.23376-2.578 0.70122-0.75623 0.4675-1.3096 1.1722-1.6602 2.114-0.35062 0.94185-0.52593 2.334-0.52592 4.1764v10.972h-5.7954v-30.235z"/>
<path fill="#027eae" d="m237.22 41.481h-5.7954v-11.178c-0.00002-2.3649-0.12377-3.8945-0.37124-4.5889-0.24751-0.69433-0.64968-1.234-1.2065-1.619-0.55687-0.38497-1.2272-0.57746-2.0109-0.57748-1.0037 0.000018-1.9043 0.27501-2.7018 0.82497-0.79748 0.55-1.344 1.2787-1.6396 2.1862-0.29563 0.90748-0.44343 2.5849-0.44342 5.0323v9.9202h-5.7954v-21.903h5.3829v3.2174c1.9112-2.4749 4.3173-3.7123 7.2185-3.7124 1.2787 0.000022 2.4474 0.23032 3.5061 0.69091 1.0587 0.46063 1.8596 1.0484 2.4027 1.7634 0.54308 0.71499 0.92119 1.5262 1.1343 2.4337 0.21309 0.90748 0.31965 2.2068 0.31967 3.898z"/>
<path fill="#b5db42" d="m243.05 48.273v-30.287h2.474v30.287z"/>
<path fill="#666" d="m249.4 34.926 2.7577-0.3782c0.0735 1.7649 0.40446 2.9731 0.99278 3.6244 0.5883 0.65135 1.4025 0.97702 2.4425 0.97702 0.7669 0.000002 1.4288-0.17597 1.9856-0.5279 0.55678-0.35193 0.94023-0.82993 1.1504-1.434 0.2101-0.60406 0.31516-1.5679 0.31517-2.8916v-15.916h3.0571v15.743c-0.00001 1.933-0.23376 3.4301-0.70125 4.4911-0.4675 1.0611-1.2081 1.87-2.2219 2.4268-1.0138 0.55679-2.2035 0.83519-3.5692 0.83519-2.0276 0-3.5798-0.58306-4.6566-1.7492s-1.5942-2.8995-1.5522-5.2002z"/>
<path fill="#666" d="m266.05 34.059 2.8838-0.25213c0.13657 1.1556 0.45436 2.1037 0.95338 2.8444 0.49901 0.74064 1.2738 1.3395 2.3244 1.7964 1.0505 0.45699 2.2324 0.68549 3.5456 0.68549 1.1661 0.000003 2.1956-0.17334 3.0886-0.52002 0.89296-0.34668 1.5574-0.82205 1.9934-1.4261 0.43596-0.60406 0.65395-1.2633 0.65397-1.9777-0.00002-0.72488-0.21013-1.3578-0.63034-1.8989-0.42023-0.54103-1.1136-0.99539-2.0801-1.3631-0.61984-0.24162-1.9908-0.61719-4.1129-1.1267s-3.6086-0.99014-4.4596-1.4419c-1.1031-0.57779-1.9251-1.2948-2.4662-2.151-0.54104-0.85619-0.81155-1.8148-0.81155-2.8759 0-1.1661 0.33092-2.256 0.99277-3.2698s1.6284-1.7833 2.8995-2.3086c1.2712-0.52525 2.6842-0.78789 4.239-0.78792 1.7124 0.000023 3.2226 0.27579 4.5305 0.82731 1.3079 0.55156 2.3138 1.3631 3.0177 2.4347 0.70385 1.0716 1.082 2.285 1.1346 3.6402l-2.931 0.22062c-0.1576-1.4603-0.69075-2.5633-1.5995-3.3092-0.90874-0.74587-2.2508-1.1188-4.0262-1.1188-1.849 0.000021-3.1963 0.33882-4.042 1.0164-0.8457 0.67763-1.2685 1.4944-1.2685 2.4504 0 0.82995 0.2994 1.5128 0.89822 2.0486 0.58831 0.5358 2.1247 1.0847 4.6093 1.6467 2.4845 0.56206 4.1891 1.0532 5.1136 1.4734 1.3447 0.61984 2.3375 1.4051 2.9783 2.3559 0.64082 0.95076 0.96124 2.046 0.96126 3.2856-0.00002 1.2292-0.35196 2.3874-1.0558 3.4747-0.70389 1.0873-1.715 1.933-3.0335 2.5371-1.3185 0.60407-2.8024 0.9061-4.4517 0.9061-2.0906 0-3.8424-0.30466-5.2554-0.91398s-2.5213-1.5259-3.325-2.7498c-0.80368-1.2239-1.2265-2.608-1.2686-4.1523z"/>
</g>
</svg>
